#Comment line ignore any data following # character 
#Hierarchical Translation and Rotation (.htr) file 
[Header]	
#Header keywords are followed by a single value 
FileType HTR		#Single word string
DataType HTRS		#Translation followed by rotation and scale data
FileVersion 1		#integer
NumSegments 84		#integer
NumFrames 2		#integer
DataFrameRate 30		#integer, data frame rate in this file
EulerRotationOrder ZYX
CalibrationUnits mm
RotationUnits Degrees
GlobalAxisofGravity Y
BoneLengthAxis Y
ScaleFactor 1.00
[SegmentNames&Hierarchy]
#CHILD	PARENT
MASTER GLOBAL
root MASTER
chest root
L_mid_tent01 root
R_mid_tent01 root
spine01 root
Bip01_Neck chest
L_humerus chest
R_humerus chest
weapon_bone chest
Bip01_Head Bip01_Neck
eye_left_bone Bip01_Head
eye_right_bone Bip01_Head
L_forearm L_humerus
L_front_hand L_forearm
L_weapon_bone L_forearm
L_front_hand01_01 L_front_hand
L_front_hand02_01 L_front_hand
L_front_hand03_01 L_front_hand
L_front_hand01_02 L_front_hand01_01
L_front_hand02_02 L_front_hand02_01
L_front_hand03_02 L_front_hand03_01
R_forearm R_humerus
R_front_hand R_forearm
R_weapon_bone R_forearm
R_front_hand01_01 R_front_hand
R_front_hand02_01 R_front_hand
R_front_hand03_01 R_front_hand
R_front_hand01_02 R_front_hand01_01
R_front_hand02_02 R_front_hand02_01
R_front_hand03_02 R_front_hand03_01
null_rope01_connect L_mid_tent01
Rope1_Seg01 null_rope01_connect
Rope1_Seg02 Rope1_Seg01
Rope1_Seg03 Rope1_Seg02
Rope1_Seg04 Rope1_Seg03
Rope1_Seg05 Rope1_Seg04
Rope1_Seg06 Rope1_Seg05
Rope1_Seg07 Rope1_Seg06
Rope1_Seg09 Rope1_Seg07
L_mid_hand01 Rope1_Seg09
L_mid_hand02 Rope1_Seg09
L_mid_hand03 Rope1_Seg09
null_rope02_connect R_mid_tent01
Rope2_Seg01 null_rope02_connect
Rope2_Seg02 Rope2_Seg01
Rope2_Seg03 Rope2_Seg02
Rope2_Seg04 Rope2_Seg03
Rope2_Seg05 Rope2_Seg04
Rope2_Seg06 Rope2_Seg05
Rope2_Seg07 Rope2_Seg06
Rope2_Seg09 Rope2_Seg07
R_mid_hand01 Rope2_Seg09
R_mid_hand02 Rope2_Seg09
R_mid_hand03 Rope2_Seg09
spine02 spine01
spine03 spine02
pelvis spine03
null_rope03_connect pelvis
null_rope04_connect pelvis
Rope3_Seg01 null_rope03_connect
Rope3_Seg02 Rope3_Seg01
Rope3_Seg03 Rope3_Seg02
Rope3_Seg04 Rope3_Seg03
Rope3_Seg05 Rope3_Seg04
Rope3_Seg06 Rope3_Seg05
Rope3_Seg07 Rope3_Seg06
Rope3_Seg08 Rope3_Seg07
Rope3_Seg09 Rope3_Seg08
R_rear_hand01 Rope3_Seg09
R_rear_hand02 Rope3_Seg09
R_rear_hand03 Rope3_Seg09
Rope4_Seg01 null_rope04_connect
Rope4_Seg02 Rope4_Seg01
Rope4_Seg03 Rope4_Seg02
Rope4_Seg04 Rope4_Seg03
Rope4_Seg05 Rope4_Seg04
Rope4_Seg06 Rope4_Seg05
Rope4_Seg07 Rope4_Seg06
Rope4_Seg08 Rope4_Seg07
Rope4_Seg09 Rope4_Seg08
L_rear_hand01 Rope4_Seg09
L_rear_hand02 Rope4_Seg09
L_rear_hand03 Rope4_Seg09
[BasePosition]
#SegmentName Tx, Ty, Tz, Rx, Ry, Rz, BoneLength
MASTER 0.000000 0.000000 0.000000 -90.000000 0.000000 0.000000 10.000000 
root 0.000000 0.000000 0.000000 0.000000 0.000000 0.000000 10.000000 
chest 0.000000 0.000000 0.000000 0.000000 0.000000 0.000000 10.000000 
L_mid_tent01 0.000000 0.000000 0.000000 0.000000 0.000000 0.000000 10.000000 
R_mid_tent01 0.000000 0.000000 0.000000 0.000000 0.000000 0.000000 10.000000 
spine01 0.000000 0.000000 0.000000 0.000000 0.000000 0.000000 10.000000 
Bip01_Neck 0.000000 0.000000 0.000000 0.000000 0.000000 0.000000 10.000000 
L_humerus 0.000000 0.000000 0.000000 0.000000 0.000000 0.000000 10.000000 
R_humerus 0.000000 0.000000 0.000000 0.000000 0.000000 0.000000 10.000000 
weapon_bone 0.000000 0.000000 0.000000 0.000000 0.000000 0.000000 10.000000 
Bip01_Head 0.000000 0.000000 0.000000 0.000000 0.000000 0.000000 10.000000 
eye_left_bone 0.000000 0.000000 0.000000 0.000000 0.000000 0.000000 10.000000 
eye_right_bone 0.000000 0.000000 0.000000 0.000000 0.000000 0.000000 10.000000 
L_forearm 0.000000 0.000000 0.000000 0.000000 0.000000 0.000000 10.000000 
L_front_hand 0.000000 0.000000 0.000000 0.000000 0.000000 0.000000 10.000000 
L_weapon_bone 0.000000 0.000000 0.000000 0.000000 0.000000 0.000000 10.000000 
L_front_hand01_01 0.000000 0.000000 0.000000 0.000000 0.000000 0.000000 10.000000 
L_front_hand02_01 0.000000 0.000000 0.000000 0.000000 0.000000 0.000000 10.000000 
L_front_hand03_01 0.000000 0.000000 0.000000 0.000000 0.000000 0.000000 10.000000 
L_front_hand01_02 0.000000 0.000000 0.000000 0.000000 0.000000 0.000000 10.000000 
L_front_hand02_02 0.000000 0.000000 0.000000 0.000000 0.000000 0.000000 10.000000 
L_front_hand03_02 0.000000 0.000000 0.000000 0.000000 0.000000 0.000000 10.000000 
R_forearm 0.000000 0.000000 0.000000 0.000000 0.000000 0.000000 10.000000 
R_front_hand 0.000000 0.000000 0.000000 0.000000 0.000000 0.000000 10.000000 
R_weapon_bone 0.000000 0.000000 0.000000 0.000000 0.000000 0.000000 10.000000 
R_front_hand01_01 0.000000 0.000000 0.000000 0.000000 0.000000 0.000000 10.000000 
R_front_hand02_01 0.000000 0.000000 0.000000 0.000000 0.000000 0.000000 10.000000 
R_front_hand03_01 0.000000 0.000000 0.000000 0.000000 0.000000 0.000000 10.000000 
R_front_hand01_02 0.000000 0.000000 0.000000 0.000000 0.000000 0.000000 10.000000 
R_front_hand02_02 0.000000 0.000000 0.000000 0.000000 0.000000 0.000000 10.000000 
R_front_hand03_02 0.000000 0.000000 0.000000 0.000000 0.000000 0.000000 10.000000 
null_rope01_connect 0.000000 0.000000 0.000000 0.000000 0.000000 0.000000 10.000000 
Rope1_Seg01 0.000000 0.000000 0.000000 0.000000 0.000000 0.000000 10.000000 
Rope1_Seg02 0.000000 0.000000 0.000000 0.000000 0.000000 0.000000 10.000000 
Rope1_Seg03 0.000000 0.000000 0.000000 0.000000 0.000000 0.000000 10.000000 
Rope1_Seg04 0.000000 0.000000 0.000000 0.000000 0.000000 0.000000 10.000000 
Rope1_Seg05 0.000000 0.000000 0.000000 0.000000 0.000000 0.000000 10.000000 
Rope1_Seg06 0.000000 0.000000 0.000000 0.000000 0.000000 0.000000 10.000000 
Rope1_Seg07 0.000000 0.000000 0.000000 0.000000 0.000000 0.000000 10.000000 
Rope1_Seg09 0.000000 0.000000 0.000000 0.000000 0.000000 0.000000 10.000000 
L_mid_hand01 0.000000 0.000000 0.000000 0.000000 0.000000 0.000000 10.000000 
L_mid_hand02 0.000000 0.000000 0.000000 0.000000 0.000000 0.000000 10.000000 
L_mid_hand03 0.000000 0.000000 0.000000 0.000000 0.000000 0.000000 10.000000 
null_rope02_connect 0.000000 0.000000 0.000000 0.000000 0.000000 0.000000 10.000000 
Rope2_Seg01 0.000000 0.000000 0.000000 0.000000 0.000000 0.000000 10.000000 
Rope2_Seg02 0.000000 0.000000 0.000000 0.000000 0.000000 0.000000 10.000000 
Rope2_Seg03 0.000000 0.000000 0.000000 0.000000 0.000000 0.000000 10.000000 
Rope2_Seg04 0.000000 0.000000 0.000000 0.000000 0.000000 0.000000 10.000000 
Rope2_Seg05 0.000000 0.000000 0.000000 0.000000 0.000000 0.000000 10.000000 
Rope2_Seg06 0.000000 0.000000 0.000000 0.000000 0.000000 0.000000 10.000000 
Rope2_Seg07 0.000000 0.000000 0.000000 0.000000 0.000000 0.000000 10.000000 
Rope2_Seg09 0.000000 0.000000 0.000000 0.000000 0.000000 0.000000 10.000000 
R_mid_hand01 0.000000 0.000000 0.000000 0.000000 0.000000 0.000000 10.000000 
R_mid_hand02 0.000000 0.000000 0.000000 0.000000 0.000000 0.000000 10.000000 
R_mid_hand03 0.000000 0.000000 0.000000 0.000000 0.000000 0.000000 10.000000 
spine02 0.000000 0.000000 0.000000 0.000000 0.000000 0.000000 10.000000 
spine03 0.000000 0.000000 0.000000 0.000000 0.000000 0.000000 10.000000 
pelvis 0.000000 0.000000 0.000000 0.000000 0.000000 0.000000 10.000000 
null_rope03_connect 0.000000 0.000000 0.000000 0.000000 0.000000 0.000000 10.000000 
null_rope04_connect 0.000000 0.000000 0.000000 0.000000 0.000000 0.000000 10.000000 
Rope3_Seg01 0.000000 0.000000 0.000000 0.000000 0.000000 0.000000 10.000000 
Rope3_Seg02 0.000000 0.000000 0.000000 0.000000 0.000000 0.000000 10.000000 
Rope3_Seg03 0.000000 0.000000 0.000000 0.000000 0.000000 0.000000 10.000000 
Rope3_Seg04 0.000000 0.000000 0.000000 0.000000 0.000000 0.000000 10.000000 
Rope3_Seg05 0.000000 0.000000 0.000000 0.000000 0.000000 0.000000 10.000000 
Rope3_Seg06 0.000000 0.000000 0.000000 0.000000 0.000000 0.000000 10.000000 
Rope3_Seg07 0.000000 0.000000 0.000000 0.000000 0.000000 0.000000 10.000000 
Rope3_Seg08 0.000000 0.000000 0.000000 0.000000 0.000000 0.000000 10.000000 
Rope3_Seg09 0.000000 0.000000 0.000000 0.000000 0.000000 0.000000 10.000000 
R_rear_hand01 0.000000 0.000000 0.000000 0.000000 0.000000 0.000000 10.000000 
R_rear_hand02 0.000000 0.000000 0.000000 0.000000 0.000000 0.000000 10.000000 
R_rear_hand03 0.000000 0.000000 0.000000 0.000000 0.000000 0.000000 10.000000 
Rope4_Seg01 0.000000 0.000000 0.000000 0.000000 0.000000 0.000000 10.000000 
Rope4_Seg02 0.000000 0.000000 0.000000 0.000000 0.000000 0.000000 10.000000 
Rope4_Seg03 0.000000 0.000000 0.000000 0.000000 0.000000 0.000000 10.000000 
Rope4_Seg04 0.000000 0.000000 0.000000 0.000000 0.000000 0.000000 10.000000 
Rope4_Seg05 0.000000 0.000000 0.000000 0.000000 0.000000 0.000000 10.000000 
Rope4_Seg06 0.000000 0.000000 0.000000 0.000000 0.000000 0.000000 10.000000 
Rope4_Seg07 0.000000 0.000000 0.000000 0.000000 0.000000 0.000000 10.000000 
Rope4_Seg08 0.000000 0.000000 0.000000 0.000000 0.000000 0.000000 10.000000 
Rope4_Seg09 0.000000 0.000000 0.000000 0.000000 0.000000 0.000000 10.000000 
L_rear_hand01 0.000000 0.000000 0.000000 0.000000 0.000000 0.000000 10.000000 
L_rear_hand02 0.000000 0.000000 0.000000 0.000000 0.000000 0.000000 10.000000 
L_rear_hand03 0.000000 0.000000 0.000000 0.000000 0.000000 0.000000 10.000000 
#Beginning of Data. Separated by tabs
#Fr	Tx	Ty	Tz	Rx	Ry	Rz	SF
[MASTER]
156 -97.512817 -9.969788 -1233.149414 0.001346 0.001923 -20.001186 1237.039063
157 -97.455765 -9.930349 -1233.160889 0.001346 0.001923 -20.001186 1237.045654
[root]
156 112.648155 484.688171 2155.489014 -65.109596 -51.754631 -117.633369 2212.180908
157 112.641769 484.681274 2155.502197 -65.109810 -51.754299 -117.633522 2212.191895
[chest]
156 -84.512650 -34.090519 0.000000 -10.909954 1.688981 155.435165 91.129311
157 -84.512650 -34.090519 0.000000 -10.818544 1.926487 154.249741 91.129311
[L_mid_tent01]
156 27.298658 22.179487 -249.918808 37.532299 60.054070 127.995178 252.381760
157 27.298656 22.179489 -249.918808 29.277617 57.595337 117.904366 252.381760
[R_mid_tent01]
156 23.228794 24.509907 226.238495 29.496996 -62.077221 -144.896988 228.744751
157 23.228794 24.509907 226.238495 85.587982 -78.938316 156.506393 228.744751
[spine01]
156 -0.361383 -0.195265 0.000000 -0.000001 -0.000007 22.052340 0.410763
157 -0.361383 -0.195265 0.000000 -0.000001 -0.000007 22.052340 0.410763
[Bip01_Neck]
156 165.484543 71.581718 0.000119 176.643677 -1.657967 43.431911 180.302734
157 165.484543 71.581718 0.000119 176.643677 -1.657967 43.431911 180.302734
[L_humerus]
156 -13.983130 -135.272980 -120.471481 157.904755 68.874275 -109.703232 181.680161
157 -13.983130 -135.272980 -120.471481 167.313583 52.319248 -100.602585 181.680161
[R_humerus]
156 -13.983309 -135.273102 125.287651 -171.865036 -65.090027 -92.695946 184.909012
157 -13.983309 -135.273102 125.287651 -172.323395 -43.415188 -91.948204 184.909012
[weapon_bone]
156 235.964890 -300.705902 0.000000 0.000000 -89.951546 -128.212341 382.234833
157 235.964890 -300.705902 0.000000 0.000000 -89.951546 -128.212341 382.234833
[Bip01_Head]
156 172.148987 152.131119 35.737766 -0.888149 2.081832 -43.465698 232.500198
157 166.925369 156.247162 47.164528 -6.994407 2.546969 -43.746101 233.456100
[eye_left_bone]
156 -24.626970 125.451866 -64.772606 0.000000 -90.000000 -99.840431 143.318359
157 -24.626970 125.451866 -64.772606 0.000000 -90.000000 -99.840431 143.318359
[eye_right_bone]
156 -24.626970 125.451866 64.327362 0.000000 -89.965736 80.156380 143.117676
157 -24.626970 125.451866 64.327362 0.000000 -89.965736 80.156380 143.117676
[L_forearm]
156 322.776093 0.000000 -0.000119 0.000012 0.002347 -89.405373 322.776093
157 322.776093 0.000000 -0.000119 0.000150 0.002342 -82.686592 322.776093
[L_front_hand]
156 241.149185 -0.042021 -3.300071 -17.699753 -1.072039 -22.273838 241.171753
157 241.149185 -0.042021 -3.300071 -18.513659 -0.926155 -21.585171 241.171753
[L_weapon_bone]
156 156.183838 0.000000 0.000000 0.000014 0.000007 0.000001 156.183838
157 156.183838 0.000000 0.000000 0.000014 0.000007 0.000001 156.183838
[L_front_hand01_01]
156 86.095154 20.947098 -0.655860 -0.366594 -0.477154 75.385574 88.609184
157 86.095154 20.947098 -0.655860 -0.366594 -0.477154 75.385574 88.609184
[L_front_hand02_01]
156 86.935165 -11.437475 24.513514 154.399796 -59.883835 -61.369587 91.046425
157 86.935165 -11.437475 24.513514 154.399796 -59.883835 -61.369587 91.046425
[L_front_hand03_01]
156 86.637497 -14.123976 -20.424902 -153.913849 58.118122 -62.702866 90.126129
157 86.637497 -14.123976 -20.424902 -153.913879 58.118130 -62.702892 90.126129
[L_front_hand01_02]
156 71.020905 -0.000179 0.000030 0.000334 -0.002323 -106.379684 71.020905
157 71.020905 -0.000179 0.000030 0.000334 -0.002323 -106.379684 71.020905
[L_front_hand02_02]
156 71.020927 -0.000119 0.000060 0.000334 -0.002323 -106.379684 71.020927
157 71.020927 -0.000119 0.000060 0.000334 -0.002323 -106.379684 71.020927
[L_front_hand03_02]
156 71.020905 -0.000060 0.000060 0.000334 -0.002323 -106.379684 71.020905
157 71.020905 -0.000060 0.000060 0.000334 -0.002323 -106.379684 71.020905
[R_forearm]
156 322.776428 -0.000060 0.000030 0.205910 -0.047800 -77.791222 322.776428
157 322.776428 -0.000060 0.000030 0.202790 -0.062984 -73.168953 322.776428
[R_front_hand]
156 238.847015 -0.006795 2.210259 42.936222 -10.646152 -26.312963 238.857239
157 238.847015 -0.006795 2.210259 42.936222 -10.646152 -26.312963 238.857239
[R_weapon_bone]
156 155.664093 0.002503 -0.000030 0.003487 0.001180 -90.988930 155.664078
157 155.664093 0.002503 -0.000030 0.003487 0.001180 -90.988930 155.664078
[R_front_hand01_01]
156 87.624611 14.231146 22.918642 -154.633499 -59.950619 61.746044 91.683487
157 87.624611 14.231146 22.918642 -154.633499 -59.950619 61.746044 91.683487
[R_front_hand02_01]
156 89.356956 14.367283 -19.491137 154.602661 58.302849 63.744389 92.579636
157 89.356956 14.367283 -19.491137 154.602661 58.302849 63.744389 92.579636
[R_front_hand03_01]
156 87.286232 -22.307278 -0.143439 0.162155 -0.423168 -75.767921 90.091743
157 87.286232 -22.307278 -0.143439 0.162155 -0.423168 -75.767921 90.091743
[R_front_hand01_02]
156 71.020905 0.000060 0.000119 0.002323 -0.000334 106.381714 71.020905
157 71.020905 0.000060 0.000119 0.002323 -0.000334 106.381714 71.020905
[R_front_hand02_02]
156 71.020844 -0.000030 -0.000119 0.002323 -0.000334 106.381714 71.020836
157 71.020844 -0.000030 -0.000119 0.002323 -0.000334 106.381714 71.020836
[R_front_hand03_02]
156 71.020905 0.000000 0.000030 0.002323 -0.000334 106.381714 71.020905
157 71.020905 0.000000 0.000030 0.002323 -0.000334 106.381714 71.020905
[null_rope01_connect]
156 328.732483 0.000000 -0.000238 -111.606491 -5.164281 134.354752 328.732483
157 328.732483 0.000000 -0.000238 -107.866760 -8.410819 136.923584 328.732483
[Rope1_Seg01]
156 -0.000038 0.000000 0.000000 -50.959675 36.199352 97.736053 0.000038
157 -0.000037 0.000000 0.000000 -48.811378 33.679966 95.540657 0.000037
[Rope1_Seg02]
156 139.999863 -0.000179 0.000000 -10.045484 3.945152 7.270591 139.999863
157 139.999863 -0.000179 0.000000 -9.856080 3.751489 6.119240 139.999863
[Rope1_Seg03]
156 139.999924 0.000060 -0.000060 -12.775935 4.697239 14.399529 139.999924
157 139.999924 0.000060 -0.000060 -13.282505 4.793770 12.254811 139.999924
[Rope1_Seg04]
156 139.999924 -0.000060 -0.000119 -10.977968 0.335800 30.332867 139.999924
157 139.999924 -0.000060 -0.000119 -13.165736 1.980756 28.795321 139.999924
[Rope1_Seg05]
156 139.999832 0.000119 -0.000060 -2.573467 -1.439949 27.339893 139.999832
157 139.999832 0.000119 -0.000060 -4.661430 -3.163179 32.246834 139.999832
[Rope1_Seg06]
156 139.999954 0.000119 -0.000060 1.813073 5.661424 11.630252 139.999954
157 139.999954 0.000119 -0.000060 1.715487 5.336723 12.767518 139.999954
[Rope1_Seg07]
156 139.999985 0.000060 0.000000 1.536382 2.741161 7.960815 139.999985
157 139.999985 0.000060 0.000000 1.616900 3.443913 8.008430 139.999985
[Rope1_Seg09]
156 121.602913 0.000119 -0.000089 -89.793175 -1.359789 0.847147 121.602913
157 121.602913 0.000119 -0.000089 -89.793175 -1.359789 0.847147 121.602913
[L_mid_hand01]
156 103.859421 1.038730 8.195221 130.544373 -67.584534 -38.866943 104.187431
157 103.859421 1.038730 8.195221 130.544373 -67.584534 -38.866943 104.187431
[L_mid_hand02]
156 105.572853 -4.139662 -10.864139 -168.923172 43.409309 -73.498886 106.211075
157 105.572853 -4.139662 -10.864139 -168.923172 43.409309 -73.498886 106.211075
[L_mid_hand03]
156 104.641464 17.579376 -3.913581 -6.012626 17.808172 74.893661 106.179977
157 104.641464 17.579376 -3.913581 -6.012626 17.808172 74.893661 106.179977
[null_rope02_connect]
156 328.732849 0.000179 -0.000119 -95.538101 0.847315 -4.720324 328.732849
157 328.732849 0.000179 -0.000119 -97.976791 24.552176 -7.638716 328.732849
[Rope2_Seg01]
156 0.000038 0.000000 0.000000 89.568626 13.071927 24.128946 0.000038
157 0.000037 0.000000 0.000000 94.993370 8.115189 43.207466 0.000037
[Rope2_Seg02]
156 139.999741 -0.000060 -0.000119 -4.682888 -9.694496 -16.514603 139.999756
157 139.999741 -0.000060 -0.000119 -0.057566 -5.069496 -5.934208 139.999756
[Rope2_Seg03]
156 140.000107 0.000030 0.000000 -6.958395 -15.586637 -33.170143 140.000107
157 140.000107 0.000030 0.000000 0.212122 -18.956667 -23.855343 140.000107
[Rope2_Seg04]
156 139.999802 0.000000 -0.000060 -4.718029 -6.289026 -26.193737 139.999802
157 139.999802 0.000000 -0.000060 8.883593 -37.216476 -80.430229 139.999802
[Rope2_Seg05]
156 139.999985 -0.000060 0.000119 0.393778 6.034003 0.688029 139.999985
157 139.999985 -0.000060 0.000119 -2.454220 -2.314041 -11.524055 139.999985
[Rope2_Seg06]
156 139.999893 -0.000030 -0.000119 0.168492 5.461802 1.412599 139.999893
157 139.999893 -0.000030 -0.000119 2.082603 4.037776 8.208695 139.999893
[Rope2_Seg07]
156 139.999893 0.000060 -0.000060 -0.082712 3.004900 -0.985687 139.999893
157 139.999893 0.000060 -0.000060 4.738588 8.355455 17.133636 139.999893
[Rope2_Seg09]
156 121.338966 0.000089 -0.000060 33.793236 -1.359788 -0.847141 121.338966
157 121.338966 0.000089 -0.000060 33.793236 -1.359788 -0.847141 121.338966
[R_mid_hand01]
156 104.680779 11.144459 -10.335981 -16.212063 45.237240 70.462845 105.778534
157 104.680779 11.144459 -10.335981 -16.212063 45.237247 70.462852 105.778534
[R_mid_hand02]
156 104.070427 2.443552 8.231699 49.067371 -67.749794 39.286461 104.424065
157 104.070427 2.443552 8.231699 49.067368 -67.749771 39.286453 104.424065
[R_mid_hand03]
156 106.028137 -11.221827 -5.996406 -177.101105 15.551026 -76.585571 106.788818
157 106.028137 -11.221827 -5.996406 -177.101105 15.551026 -76.585571 106.788818
[spine02]
156 129.756927 0.001550 0.000119 0.398869 -4.040778 -13.517084 129.756927
157 129.756927 0.001550 0.000119 0.397261 -4.040951 -13.491401 129.756927
[spine03]
156 78.613892 0.081712 -4.899006 1.921939 3.818740 16.848799 78.766426
157 78.613892 0.081713 -4.899005 1.920906 3.819365 16.833771 78.766426
[pelvis]
156 169.435242 0.051022 0.000000 -0.061668 -0.179818 14.853213 169.435257
157 169.435242 0.051022 0.000000 -0.061613 -0.179836 14.818661 169.435257
[null_rope03_connect]
156 -1.257226 -2.466202 137.391083 -57.642002 -59.200829 165.900345 137.418976
157 -1.257226 -2.466202 137.391083 -57.644665 -59.199429 165.924850 137.418976
[null_rope04_connect]
156 -1.259640 -2.480268 -137.844437 -57.642002 -59.200829 165.900345 137.872513
157 -1.259640 -2.480268 -137.844437 -57.644665 -59.199429 165.924850 137.872513
[Rope3_Seg01]
156 0.000000 0.000115 0.000000 27.389116 -62.538101 -79.804413 0.000115
157 0.000000 0.000116 0.000000 27.387094 -62.553989 -79.797699 0.000116
[Rope3_Seg02]
156 139.999924 -0.000119 0.000060 -11.275961 29.326620 -15.900493 139.999924
157 139.999924 -0.000119 0.000060 -11.244314 29.253613 -15.865531 139.999924
[Rope3_Seg03]
156 139.999924 -0.000119 0.000119 -1.620383 20.316372 -2.153021 139.999924
157 139.999924 -0.000119 0.000119 -1.668173 20.399261 -2.268121 139.999924
[Rope3_Seg04]
156 139.999924 0.000119 0.000000 -3.209482 23.564737 -16.844051 139.999924
157 139.999924 0.000119 0.000000 -3.455415 24.271637 -17.398518 139.999924
[Rope3_Seg05]
156 139.999924 -0.000238 0.000060 -7.950917 28.410362 -27.067047 139.999924
157 139.999924 -0.000238 0.000060 -4.693806 22.771971 -20.583082 139.999924
[Rope3_Seg06]
156 139.999893 -0.000119 -0.000060 -1.179110 10.152097 -7.680467 139.999893
157 139.999893 -0.000119 -0.000060 -0.555544 7.977041 -5.993620 139.999893
[Rope3_Seg07]
156 139.999771 0.000060 -0.000119 -0.152911 5.085031 -3.703716 139.999771
157 139.999771 0.000060 -0.000119 0.054981 4.323339 -3.178853 139.999771
[Rope3_Seg08]
156 139.999985 -0.000060 0.000000 0.218329 2.681547 -1.947359 139.999985
157 139.999985 -0.000060 0.000000 0.306778 2.370809 -1.753043 139.999985
[Rope3_Seg09]
156 90.185997 -0.000179 -0.000060 89.793228 -1.359877 -0.847183 90.185997
157 90.185997 -0.000179 -0.000060 89.793228 -1.359877 -0.847183 90.185997
[R_rear_hand01]
156 103.366196 -6.073594 -10.757982 -177.714203 24.565960 -73.910950 104.101845
157 103.366196 -6.073594 -10.757982 -177.714203 24.565960 -73.910950 104.101845
[R_rear_hand02]
156 100.509819 12.039542 -7.992327 -12.874829 36.868488 72.167213 101.543350
157 100.509819 12.039542 -7.992327 -12.874829 36.868488 72.167213 101.543350
[R_rear_hand03]
156 101.539970 5.215704 5.435467 71.484581 -71.816628 21.513813 101.819031
157 101.539970 5.215704 5.435467 71.484581 -71.816628 21.513813 101.819031
[Rope4_Seg01]
156 -0.000230 0.000000 0.000000 38.874264 0.337061 132.429413 0.000230
157 -0.000231 0.000000 0.000000 38.870136 0.331375 132.422531 0.000231
[Rope4_Seg02]
156 139.999985 0.000060 0.000119 -33.024033 17.231649 21.234093 139.999985
157 139.999985 0.000060 0.000119 -33.030064 17.229582 21.237728 139.999985
[Rope4_Seg03]
156 139.999924 0.000000 -0.000238 -50.217079 -6.394254 17.955570 139.999924
157 139.999924 0.000000 -0.000238 -50.192852 -6.397576 17.956030 139.999924
[Rope4_Seg04]
156 139.999985 0.000000 0.000119 -34.465366 -3.751776 15.324270 139.999985
157 139.999985 0.000000 0.000119 -34.440853 -3.747479 15.320089 139.999985
[Rope4_Seg05]
156 139.999802 -0.000060 -0.000119 -47.837811 -11.742980 27.084700 139.999802
157 139.999802 -0.000060 -0.000119 -47.850636 -11.729718 27.094435 139.999802
[Rope4_Seg06]
156 139.999924 0.000000 0.000060 -9.948914 -14.615041 4.664341 139.999924
157 139.999924 0.000000 0.000060 -9.959267 -14.622156 4.675830 139.999924
[Rope4_Seg07]
156 139.999802 0.000000 0.000000 -2.694742 -7.930813 0.810849 139.999802
157 139.999802 0.000000 0.000000 -2.697140 -7.935063 0.813576 139.999802
[Rope4_Seg08]
156 139.999924 0.000000 0.000119 -2.618578 -4.369468 0.242670 139.999924
157 139.999924 0.000000 0.000119 -2.621058 -4.371601 0.245308 139.999924
[Rope4_Seg09]
156 90.185791 0.000060 0.000060 -135.617828 2.228885 0.850567 90.185791
157 90.185791 0.000060 0.000060 -135.617828 2.228885 0.850567 90.185791
[L_rear_hand01]
156 101.696655 -8.392275 -7.654577 -12.874829 -36.868488 107.832764 102.329041
157 101.696655 -8.392275 -7.654577 -12.874829 -36.868488 107.832764 102.329041
[L_rear_hand02]
156 102.726799 -1.568258 5.773216 71.484581 71.816628 158.486160 102.900848
157 102.726799 -1.568258 5.773216 71.484581 71.816628 158.486160 102.900848
[L_rear_hand03]
156 104.552910 9.721220 -10.420293 -177.714203 -24.565960 -106.089035 105.519653
157 104.552910 9.721220 -10.420293 -177.714203 -24.565960 -106.089035 105.519653
